# xmcd
#
# Track frame offsets:
#  150
#  26076
#  40023
#  68403
#  89123
#  112553
#  145258
#  163808
#  184530
#
# Disc length: 2727 seconds
#
# Revision: 0
# Processed by: cddbd v1.5.2PL0 Copyright (c) Steve Scherf et al.
# Submitted via: Collectorz.com_Music_Collector 6.9
#
DISCID=6d0aa509
DTITLE=Iron Maiden - Live After Death (bonus CD)
DYEAR=1985
DGENRE=Heavy Metal
TTITLE0=Wrathchild
TTITLE1=22 Acacia Avenue
TTITLE2=Children Of The Damned
TTITLE3=Die With Your Boots On
TTITLE4=Phantom Of The Opera
TTITLE5=Losfer Words (Big 'Orra)
TTITLE6=Sanctuary
TTITLE7=Murders In The Rue Morgue
TTITLE8=Data: The Trooper.TVRip.XviD.avi
EXTD=
EXTT0=
EXTT1=
EXTT2=
EXTT3=
EXTT4=
EXTT5=
EXTT6=
EXTT7=
EXTT8=
PLAYORDER=
